<svg xmlns="http://www.w3.org/2000/svg" xmlns:xlink="http://www.w3.org/1999/xlink" width="180" zoomAndPan="magnify" viewBox="0 0 135 30.000001" height="40" preserveAspectRatio="xMidYMid meet" version="1.0"><defs><g/><clipPath id="9940449d7b"><path d="M 72 3.628906 L 75 3.628906 L 75 9 L 72 9 Z M 72 3.628906 " clip-rule="nonzero"/></clipPath><clipPath id="9543d4548c"><path d="M 66.285156 9 L 82.980469 9 L 82.980469 26.855469 L 66.285156 26.855469 Z M 66.285156 9 " clip-rule="nonzero"/></clipPath></defs><g clip-path="url(#9940449d7b)"><path fill="#fdce13" d="M 74.265625 6.003906 C 74.265625 6.308594 74.242188 6.605469 74.195312 6.886719 C 74.148438 7.167969 74.085938 7.417969 74 7.632812 C 73.914062 7.847656 73.816406 8.015625 73.703125 8.132812 C 73.59375 8.25 73.476562 8.308594 73.355469 8.308594 C 73.234375 8.308594 73.117188 8.25 73.007812 8.132812 C 72.894531 8.015625 72.796875 7.847656 72.710938 7.632812 C 72.628906 7.417969 72.5625 7.167969 72.515625 6.886719 C 72.46875 6.605469 72.445312 6.308594 72.445312 6.003906 C 72.445312 5.699219 72.46875 5.40625 72.515625 5.125 C 72.5625 4.839844 72.628906 4.59375 72.710938 4.375 C 72.796875 4.160156 72.894531 3.996094 73.007812 3.878906 C 73.117188 3.761719 73.234375 3.703125 73.355469 3.703125 C 73.476562 3.703125 73.59375 3.761719 73.703125 3.878906 C 73.816406 3.996094 73.914062 4.160156 74 4.375 C 74.085938 4.59375 74.148438 4.839844 74.195312 5.125 C 74.242188 5.40625 74.265625 5.699219 74.265625 6.003906 Z M 74.265625 6.003906 " fill-opacity="1" fill-rule="nonzero"/></g><path fill="#fdce13" d="M 71.738281 8.527344 C 71.945312 8.753906 72.125 8.992188 72.273438 9.238281 C 72.425781 9.484375 72.535156 9.722656 72.605469 9.953125 C 72.671875 10.179688 72.699219 10.382812 72.675781 10.558594 C 72.65625 10.734375 72.589844 10.871094 72.480469 10.964844 C 72.375 11.0625 72.230469 11.113281 72.050781 11.113281 C 71.871094 11.117188 71.667969 11.070312 71.445312 10.976562 C 71.222656 10.886719 70.992188 10.753906 70.761719 10.582031 C 70.527344 10.40625 70.308594 10.207031 70.101562 9.980469 C 69.894531 9.753906 69.714844 9.515625 69.5625 9.269531 C 69.414062 9.023438 69.304688 8.785156 69.234375 8.558594 C 69.164062 8.328125 69.140625 8.125 69.160156 7.949219 C 69.183594 7.773438 69.246094 7.636719 69.355469 7.542969 C 69.464844 7.445312 69.609375 7.398438 69.789062 7.394531 C 69.96875 7.390625 70.171875 7.4375 70.394531 7.53125 C 70.617188 7.621094 70.84375 7.753906 71.078125 7.929688 C 71.3125 8.101562 71.53125 8.300781 71.738281 8.527344 Z M 71.738281 8.527344 " fill-opacity="1" fill-rule="nonzero"/><path fill="#fdce13" d="M 77.355469 7.539062 C 77.464844 7.636719 77.527344 7.773438 77.550781 7.949219 C 77.570312 8.125 77.546875 8.324219 77.476562 8.554688 C 77.40625 8.785156 77.296875 9.019531 77.148438 9.269531 C 76.996094 9.515625 76.820312 9.75 76.613281 9.976562 C 76.402344 10.207031 76.183594 10.40625 75.949219 10.578125 C 75.71875 10.75 75.488281 10.882812 75.265625 10.976562 C 75.042969 11.070312 74.839844 11.113281 74.660156 11.113281 C 74.480469 11.109375 74.335938 11.0625 74.230469 10.964844 C 74.121094 10.867188 74.054688 10.734375 74.035156 10.554688 C 74.011719 10.378906 74.039062 10.179688 74.105469 9.949219 C 74.175781 9.722656 74.285156 9.484375 74.4375 9.238281 C 74.585938 8.992188 74.765625 8.753906 74.972656 8.527344 C 75.179688 8.300781 75.398438 8.097656 75.632812 7.925781 C 75.867188 7.753906 76.09375 7.621094 76.316406 7.527344 C 76.542969 7.4375 76.742188 7.390625 76.921875 7.390625 C 77.101562 7.394531 77.246094 7.445312 77.355469 7.539062 Z M 77.355469 7.539062 " fill-opacity="1" fill-rule="nonzero"/><path fill="#fdce13" d="M 78.09375 11.554688 C 78.171875 11.675781 78.195312 11.824219 78.167969 11.996094 C 78.140625 12.171875 78.0625 12.359375 77.933594 12.5625 C 77.800781 12.765625 77.632812 12.964844 77.417969 13.160156 C 77.207031 13.359375 76.96875 13.539062 76.707031 13.703125 C 76.445312 13.867188 76.179688 14 75.90625 14.105469 C 75.636719 14.207031 75.378906 14.273438 75.140625 14.304688 C 74.898438 14.335938 74.691406 14.324219 74.519531 14.273438 C 74.347656 14.222656 74.222656 14.136719 74.144531 14.015625 C 74.066406 13.894531 74.039062 13.746094 74.066406 13.570312 C 74.097656 13.398438 74.175781 13.210938 74.304688 13.007812 C 74.433594 12.804688 74.605469 12.605469 74.816406 12.410156 C 75.03125 12.210938 75.265625 12.03125 75.527344 11.867188 C 75.792969 11.703125 76.058594 11.570312 76.328125 11.464844 C 76.601562 11.363281 76.859375 11.292969 77.097656 11.265625 C 77.339844 11.234375 77.546875 11.246094 77.71875 11.296875 C 77.890625 11.347656 78.015625 11.429688 78.09375 11.554688 Z M 78.09375 11.554688 " fill-opacity="1" fill-rule="nonzero"/><path fill="#fdce13" d="M 71.058594 11.863281 C 71.316406 12.027344 71.554688 12.207031 71.765625 12.402344 C 71.976562 12.597656 72.144531 12.792969 72.273438 12.996094 C 72.402344 13.195312 72.480469 13.382812 72.511719 13.554688 C 72.539062 13.730469 72.515625 13.875 72.4375 13.996094 C 72.359375 14.117188 72.234375 14.203125 72.0625 14.253906 C 71.890625 14.300781 71.6875 14.3125 71.449219 14.285156 C 71.210938 14.253906 70.953125 14.1875 70.683594 14.085938 C 70.414062 13.984375 70.148438 13.851562 69.886719 13.6875 C 69.628906 13.527344 69.390625 13.347656 69.179688 13.152344 C 68.96875 12.957031 68.800781 12.757812 68.671875 12.558594 C 68.542969 12.359375 68.464844 12.171875 68.433594 11.996094 C 68.40625 11.824219 68.429688 11.675781 68.507812 11.554688 C 68.585938 11.433594 68.710938 11.347656 68.882812 11.300781 C 69.054688 11.25 69.257812 11.238281 69.496094 11.269531 C 69.734375 11.296875 69.992188 11.363281 70.261719 11.46875 C 70.53125 11.570312 70.796875 11.703125 71.058594 11.863281 Z M 71.058594 11.863281 " fill-opacity="1" fill-rule="nonzero"/><path fill="#fdce13" d="M 78.660156 15.261719 C 78.707031 15.398438 78.695312 15.550781 78.625 15.710938 C 78.554688 15.875 78.433594 16.039062 78.257812 16.203125 C 78.082031 16.371094 77.871094 16.523438 77.617188 16.664062 C 77.363281 16.808594 77.089844 16.925781 76.792969 17.023438 C 76.5 17.121094 76.210938 17.1875 75.917969 17.226562 C 75.628906 17.265625 75.367188 17.269531 75.125 17.242188 C 74.882812 17.214844 74.6875 17.15625 74.53125 17.066406 C 74.375 16.976562 74.273438 16.863281 74.226562 16.730469 C 74.179688 16.59375 74.191406 16.441406 74.261719 16.277344 C 74.332031 16.117188 74.453125 15.953125 74.628906 15.785156 C 74.804688 15.621094 75.019531 15.46875 75.273438 15.324219 C 75.523438 15.183594 75.800781 15.0625 76.09375 14.964844 C 76.386719 14.871094 76.679688 14.800781 76.96875 14.765625 C 77.257812 14.726562 77.523438 14.722656 77.761719 14.75 C 78.003906 14.777344 78.203125 14.835938 78.355469 14.925781 C 78.511719 15.011719 78.613281 15.125 78.660156 15.261719 Z M 78.660156 15.261719 " fill-opacity="1" fill-rule="nonzero"/><path fill="#fdce13" d="M 70.621094 14.96875 C 70.914062 15.066406 71.1875 15.1875 71.441406 15.328125 C 71.695312 15.46875 71.910156 15.625 72.085938 15.789062 C 72.261719 15.953125 72.382812 16.117188 72.453125 16.28125 C 72.523438 16.445312 72.53125 16.59375 72.488281 16.730469 C 72.441406 16.867188 72.339844 16.980469 72.183594 17.070312 C 72.027344 17.160156 71.832031 17.21875 71.589844 17.246094 C 71.347656 17.273438 71.082031 17.265625 70.792969 17.230469 C 70.503906 17.191406 70.214844 17.125 69.917969 17.027344 C 69.625 16.929688 69.351562 16.8125 69.097656 16.667969 C 68.84375 16.527344 68.628906 16.375 68.457031 16.207031 C 68.28125 16.042969 68.160156 15.878906 68.089844 15.714844 C 68.019531 15.550781 68.007812 15.402344 68.054688 15.265625 C 68.101562 15.128906 68.203125 15.015625 68.355469 14.925781 C 68.511719 14.839844 68.710938 14.78125 68.953125 14.753906 C 69.191406 14.726562 69.457031 14.730469 69.746094 14.765625 C 70.035156 14.804688 70.328125 14.871094 70.621094 14.96875 Z M 70.621094 14.96875 " fill-opacity="1" fill-rule="nonzero"/><g clip-path="url(#9543d4548c)"><path fill="#00660a" d="M 73.808594 23.730469 L 73.355469 9.253906 L 72.902344 23.796875 C 72.027344 21.921875 69.878906 18.417969 66.292969 19.300781 C 66.292969 19.300781 69.605469 20.078125 73.355469 26.769531 C 76.019531 21.679688 79.226562 17.933594 82.972656 15.527344 C 77.824219 15.621094 74.867188 21.234375 73.808594 23.730469 Z M 73.808594 23.730469 " fill-opacity="1" fill-rule="nonzero"/></g><g fill="#00660a" fill-opacity="1"><g transform="translate(2.211439, 21.592744)"><g><path d="M 10.925781 -8.65625 C 12.207031 -9.28125 12.832031 -10.460938 12.832031 -11.898438 C 12.832031 -14.691406 10.96875 -16.390625 7.429688 -16.390625 L 2.121094 -16.390625 L 2.121094 0 L 8.871094 0 C 12.332031 0 14.011719 -1.828125 14.011719 -4.59375 C 14.011719 -6.929688 12.773438 -8.144531 10.925781 -8.65625 Z M 7.464844 -13.566406 C 8.984375 -13.566406 9.699219 -12.773438 9.699219 -11.683594 C 9.699219 -10.574219 9.0625 -9.710938 7.613281 -9.710938 L 5.398438 -9.710938 L 5.398438 -13.566406 Z M 8.234375 -2.914062 L 5.398438 -2.914062 L 5.398438 -7.089844 L 8.167969 -7.089844 C 10.085938 -7.089844 10.710938 -6.058594 10.710938 -4.96875 C 10.710938 -3.902344 10.074219 -2.914062 8.234375 -2.914062 Z M 8.234375 -2.914062 "/></g></g></g><g fill="#00660a" fill-opacity="1"><g transform="translate(17.120861, 21.592744)"><g><path d="M 11.253906 -2.835938 L 11.253906 -7.679688 C 11.253906 -11.195312 8.691406 -11.890625 6.351562 -11.890625 C 3.253906 -11.890625 1.484375 -10.789062 1 -8.371094 L 3.890625 -7.851562 C 4.09375 -9.167969 4.992188 -9.632812 6.171875 -9.632812 C 7.089844 -9.632812 8.132812 -9.3125 8.132812 -8.167969 C 8.132812 -7.691406 7.839844 -7.40625 7.011719 -7.214844 L 5.09375 -6.785156 C 2.65625 -6.25 0.851562 -5.433594 0.851562 -3.015625 C 0.851562 -0.589844 2.644531 0.226562 4.480469 0.226562 C 5.84375 0.226562 7.351562 -0.214844 8.222656 -1.269531 L 8.484375 0 L 11.539062 0 L 11.539062 -0.316406 C 11.332031 -0.976562 11.253906 -1.53125 11.253906 -2.835938 Z M 5.457031 -1.828125 C 4.628906 -1.828125 3.96875 -2.246094 3.96875 -3.152344 C 3.96875 -4.039062 4.503906 -4.46875 5.535156 -4.71875 L 8.304688 -5.503906 C 8.304688 -2.984375 7.023438 -1.828125 5.457031 -1.828125 Z M 5.457031 -1.828125 "/></g></g></g><g fill="#00660a" fill-opacity="1"><g transform="translate(29.853395, 21.592744)"><g><path d="M 9.722656 -11.660156 L 9.644531 -10.117188 C 9.007812 -11.164062 7.667969 -11.890625 6.035156 -11.890625 C 3.132812 -11.890625 0.691406 -9.664062 0.691406 -6.113281 C 0.691406 -2.550781 3.121094 -0.273438 6.011719 -0.273438 C 7.53125 -0.273438 8.871094 -0.929688 9.550781 -1.859375 L 9.550781 -0.191406 C 9.550781 2.097656 8.585938 3.402344 6.523438 3.402344 C 4.957031 3.402344 4.003906 2.675781 3.347656 1.167969 L 0.636719 2.324219 C 1.484375 4.539062 3.300781 5.945312 6.648438 5.945312 C 10.367188 5.945312 12.832031 4.105469 12.832031 -0.429688 L 12.832031 -11.660156 Z M 6.851562 -2.914062 C 5.160156 -2.914062 3.847656 -4.253906 3.847656 -6.113281 C 3.847656 -7.976562 5.140625 -9.300781 6.851562 -9.300781 C 8.578125 -9.300781 9.871094 -7.917969 9.871094 -6.113281 C 9.871094 -4.300781 8.554688 -2.914062 6.851562 -2.914062 Z M 6.851562 -2.914062 "/></g></g></g><g fill="#00660a" fill-opacity="1"><g transform="translate(44.377326, 21.592744)"><g><path d="M 7.125 0.226562 C 10.867188 0.226562 13.523438 -2.03125 13.523438 -5.84375 C 13.523438 -9.632812 10.878906 -11.898438 7.125 -11.898438 C 3.390625 -11.898438 0.738281 -9.632812 0.738281 -5.84375 C 0.738281 -2.03125 3.414062 0.226562 7.125 0.226562 Z M 7.089844 -2.371094 C 5.265625 -2.371094 3.980469 -3.753906 3.980469 -5.84375 C 3.980469 -7.929688 5.265625 -9.3125 7.089844 -9.3125 C 8.984375 -9.3125 10.277344 -7.929688 10.277344 -5.84375 C 10.277344 -3.753906 8.984375 -2.371094 7.089844 -2.371094 Z M 7.089844 -2.371094 "/></g></g></g><g fill="#00660a" fill-opacity="1"><g transform="translate(58.629147, 21.592744)"><g><path d="M 4.890625 -9.9375 L 4.789062 -11.660156 L 1.691406 -11.660156 L 1.691406 0 L 4.980469 0 L 4.980469 -5.683594 C 4.980469 -8.15625 6.160156 -8.882812 8.632812 -8.882812 L 8.632812 -11.796875 C 7.011719 -11.796875 5.523438 -10.925781 4.890625 -9.9375 Z M 4.890625 -9.9375 "/></g></g></g><g fill="#00660a" fill-opacity="1"><g transform="translate(78.66626, 22.500002)"><g><path d="M 11.625 -16.386719 L 0.453125 -16.386719 L 0.453125 -13.394531 L 4.367188 -13.394531 L 4.367188 0 L 7.734375 0 L 7.734375 -13.394531 L 11.625 -13.394531 Z M 11.625 -16.386719 "/></g></g><g transform="translate(90.744133, 22.500002)"><g><path d="M 12.65625 -6 C 12.644531 -10.082031 10.183594 -11.90625 6.882812 -11.90625 C 3.289062 -11.90625 0.761719 -9.664062 0.761719 -5.828125 C 0.761719 -1.996094 3.222656 0.226562 6.984375 0.226562 C 9.605469 0.226562 11.703125 -1.121094 12.476562 -3.480469 L 9.480469 -3.925781 C 9.039062 -2.890625 8.132812 -2.347656 6.964844 -2.347656 C 5.410156 -2.347656 4.117188 -3.277344 3.980469 -5.214844 L 12.621094 -5.214844 Z M 6.90625 -9.59375 C 8.300781 -9.59375 9.34375 -8.765625 9.445312 -7.132812 L 4.039062 -7.132812 C 4.296875 -8.847656 5.351562 -9.59375 6.90625 -9.59375 Z M 6.90625 -9.59375 "/></g></g><g transform="translate(104.194234, 22.500002)"><g><path d="M 6.964844 0.214844 C 9.855469 0.214844 12.125 -1.328125 12.691406 -4.082031 L 9.671875 -4.410156 C 9.3125 -3.027344 8.300781 -2.371094 6.929688 -2.371094 C 5.171875 -2.371094 3.980469 -3.765625 3.980469 -5.839844 C 3.980469 -7.925781 5.171875 -9.3125 6.929688 -9.3125 C 8.300781 -9.3125 9.3125 -8.664062 9.671875 -7.269531 L 12.691406 -7.597656 C 12.125 -10.355469 9.910156 -11.886719 6.964844 -11.886719 C 3.300781 -11.886719 0.714844 -9.46875 0.714844 -5.839844 C 0.714844 -2.222656 3.300781 0.214844 6.964844 0.214844 Z M 6.964844 0.214844 "/></g></g><g transform="translate(117.519587, 22.500002)"><g><path d="M 8.742188 -11.886719 C 7.089844 -11.886719 5.785156 -11.273438 4.957031 -10.261719 L 4.957031 -17.417969 L 1.691406 -17.417969 L 1.691406 0 L 4.957031 0 L 4.957031 -6.429688 C 4.980469 -8.664062 6.304688 -9.265625 7.519531 -9.265625 C 8.6875 -9.265625 9.640625 -8.699219 9.640625 -6.984375 L 9.640625 0 L 12.917969 0 L 12.917969 -7.519531 C 12.917969 -10.433594 11.351562 -11.886719 8.742188 -11.886719 Z M 8.742188 -11.886719 "/></g></g></g></svg>